<?xml version="1.0" encoding="iso-8859-1"?>
<!-- Generator: Adobe Illustrator 19.0.0, SVG Export Plug-In . SVG Version: 6.00 Build 0)  -->
<svg version="1.1" id="Layer_1" xmlns="http://www.w3.org/2000/svg" xmlns:xlink="http://www.w3.org/1999/xlink" x="0px" y="0px"
	 viewBox="0 0 485 485" style="enable-background:new 0 0 485 485;" xml:space="preserve">
<g>
	<path d="M362.5,100.989c27.843,0,50.494-22.652,50.494-50.494S390.343,0,362.5,0s-50.494,22.652-50.494,50.494
		S334.657,100.989,362.5,100.989z M362.5,30c11.3,0,20.494,9.194,20.494,20.494S373.8,70.989,362.5,70.989
		s-20.494-9.194-20.494-20.494S351.2,30,362.5,30z"/>
	<polygon points="274.582,121.03 274.582,209.573 210.418,209.573 210.418,121.03 34.582,121.03 34.582,319.573 53.18,319.573 
		53.18,485 191.82,485 191.82,319.573 215.418,319.573 215.418,289.573 161.82,289.573 161.82,455 83.18,455 83.18,289.573 
		64.582,289.573 64.582,151.03 107.5,151.03 107.5,244.573 137.5,244.573 137.5,151.03 180.418,151.03 180.418,239.573 
		304.582,239.573 304.582,151.03 347.5,151.03 347.5,244.573 377.5,244.573 377.5,151.03 420.418,151.03 420.418,289.573 
		401.82,289.573 401.82,455 323.18,455 323.18,289.573 269.582,289.573 269.582,319.573 293.18,319.573 293.18,485 431.82,485 
		431.82,319.573 450.418,319.573 450.418,121.03 	"/>
	<path d="M122.5,100.989c27.843,0,50.494-22.652,50.494-50.494S150.343,0,122.5,0S72.006,22.652,72.006,50.494
		S94.657,100.989,122.5,100.989z M122.5,30c11.3,0,20.494,9.194,20.494,20.494S133.8,70.989,122.5,70.989
		s-20.494-9.194-20.494-20.494S111.2,30,122.5,30z"/>
</g>
<g>
</g>
<g>
</g>
<g>
</g>
<g>
</g>
<g>
</g>
<g>
</g>
<g>
</g>
<g>
</g>
<g>
</g>
<g>
</g>
<g>
</g>
<g>
</g>
<g>
</g>
<g>
</g>
<g>
</g>
</svg>
